<svg width="32" height="32" viewBox="0 0 32 32" fill="none" xmlns="http://www.w3.org/2000/svg">
<path d="M30.0389 1.51172L17.9611 10.4883L20.2778 5.04883L30.0389 1.51172Z" fill="#E2761B" stroke="#E2761B" stroke-width="0.25" stroke-linecap="round" stroke-linejoin="round"/>
<path d="M1.96118 1.51172L13.9333 10.5664L11.7222 5.04883L1.96118 1.51172Z" fill="#E4761B" stroke="#E4761B" stroke-width="0.25" stroke-linecap="round" stroke-linejoin="round"/>
<path d="M25.6778 23.1328L22.8333 27.5156L29.4 29.1797L31.1333 23.2109L25.6778 23.1328Z" fill="#E4761B" stroke="#E4761B" stroke-width="0.25" stroke-linecap="round" stroke-linejoin="round"/>
<path d="M0.877777 23.2109L2.6 29.1797L9.16666 27.5156L6.32222 23.1328L0.877777 23.2109Z" fill="#E4761B" stroke="#E4761B" stroke-width="0.25" stroke-linecap="round" stroke-linejoin="round"/>
<path d="M8.86667 14.2109L6.90002 17.2344L13.4 17.5469L13.1778 10.4883L8.86667 14.2109Z" fill="#E4761B" stroke="#E4761B" stroke-width="0.25" stroke-linecap="round" stroke-linejoin="round"/>
<path d="M23.1333 14.2109L18.7445 10.4102L18.6 17.5469L25.1 17.2344L23.1333 14.2109Z" fill="#E4761B" stroke="#E4761B" stroke-width="0.25" stroke-linecap="round" stroke-linejoin="round"/>
<path d="M9.16669 27.5156L12.8889 25.7031L9.67781 23.2500L9.16669 27.5156Z" fill="#E4761B" stroke="#E4761B" stroke-width="0.25" stroke-linecap="round" stroke-linejoin="round"/>
<path d="M19.1111 25.7031L22.8333 27.5156L22.3222 23.2500L19.1111 25.7031Z" fill="#E4761B" stroke="#E4761B" stroke-width="0.25" stroke-linecap="round" stroke-linejoin="round"/>
<path d="M22.8333 27.5156L19.1111 25.7031L19.4 28.3750L19.3667 29.1016L22.8333 27.5156Z" fill="#D7C1B3" stroke="#D7C1B3" stroke-width="0.25" stroke-linecap="round" stroke-linejoin="round"/>
<path d="M9.16669 27.5156L12.6333 29.1016L12.6111 28.3750L12.8889 25.7031L9.16669 27.5156Z" fill="#D7C1B3" stroke="#D7C1B3" stroke-width="0.25" stroke-linecap="round" stroke-linejoin="round"/>
<path d="M12.7 20.7969L9.61111 19.8906L11.7778 18.9062L12.7 20.7969Z" fill="#233447" stroke="#233447" stroke-width="0.25" stroke-linecap="round" stroke-linejoin="round"/>
<path d="M19.3 20.7969L20.2222 18.9062L22.4 19.8906L19.3 20.7969Z" fill="#233447" stroke="#233447" stroke-width="0.25" stroke-linecap="round" stroke-linejoin="round"/>
<path d="M9.16666 27.5156L9.7 23.1328L6.32222 23.2109L9.16666 27.5156Z" fill="#CD6116" stroke="#CD6116" stroke-width="0.25" stroke-linecap="round" stroke-linejoin="round"/>
<path d="M22.3 23.1328L22.8333 27.5156L25.6778 23.2109L22.3 23.1328Z" fill="#CD6116" stroke="#CD6116" stroke-width="0.25" stroke-linecap="round" stroke-linejoin="round"/>
<path d="M25.1 17.2344L18.6 17.5469L19.3111 20.7969L20.2333 18.9062L22.4111 19.8906L25.1 17.2344Z" fill="#CD6116" stroke="#CD6116" stroke-width="0.25" stroke-linecap="round" stroke-linejoin="round"/>
<path d="M9.61111 19.8906L11.7889 18.9062L12.7111 20.7969L13.4 17.5469L6.90002 17.2344L9.61111 19.8906Z" fill="#CD6116" stroke="#CD6116" stroke-width="0.25" stroke-linecap="round" stroke-linejoin="round"/>
<path d="M6.90002 17.2344L9.67779 23.2500L9.61111 19.8906L6.90002 17.2344Z" fill="#E4751F" stroke="#E4751F" stroke-width="0.25" stroke-linecap="round" stroke-linejoin="round"/>
<path d="M22.4111 19.8906L22.3222 23.2500L25.1 17.2344L22.4111 19.8906Z" fill="#E4751F" stroke="#E4751F" stroke-width="0.25" stroke-linecap="round" stroke-linejoin="round"/>
<path d="M13.4 17.5469L12.7111 20.7969L13.5889 25.2812L13.7889 19.6250L13.4 17.5469Z" fill="#E4751F" stroke="#E4751F" stroke-width="0.25" stroke-linecap="round" stroke-linejoin="round"/>
<path d="M18.6 17.5469L18.2222 19.6094L18.4111 25.2812L19.3111 20.7969L18.6 17.5469Z" fill="#E4751F" stroke="#E4751F" stroke-width="0.25" stroke-linecap="round" stroke-linejoin="round"/>
<path d="M19.3111 20.7969L18.4111 25.2812L19.1111 25.7031L22.3222 23.2500L22.4111 19.8906L19.3111 20.7969Z" fill="#F6851B" stroke="#F6851B" stroke-width="0.25" stroke-linecap="round" stroke-linejoin="round"/>
<path d="M9.61111 19.8906L9.67779 23.2500L12.8889 25.7031L13.5889 25.2812L12.7111 20.7969L9.61111 19.8906Z" fill="#F6851B" stroke="#F6851B" stroke-width="0.25" stroke-linecap="round" stroke-linejoin="round"/>
<path d="M19.3667 29.1016L19.4 28.3750L19.1333 28.1406H12.8667L12.6111 28.3750L12.6333 29.1016L9.16669 27.5156L10.3889 28.5625L12.8333 30.2500H19.1667L21.6111 28.5625L22.8333 27.5156L19.3667 29.1016Z" fill="#C0AD9E" stroke="#C0AD9E" stroke-width="0.25" stroke-linecap="round" stroke-linejoin="round"/>
<path d="M19.1111 25.7031L18.4111 25.2812H13.5889L12.8889 25.7031L12.6111 28.3750L12.8667 28.1406H19.1333L19.4 28.3750L19.1111 25.7031Z" fill="#161616" stroke="#161616" stroke-width="0.25" stroke-linecap="round" stroke-linejoin="round"/>
<path d="M30.5444 11.2656L31.8889 5.28125L30.0389 1.51172L19.1111 10.4883L23.1333 14.2109L29.3111 15.7969L30.6 14.2891L30.0111 13.8594L31.2889 12.6875L30.5556 12.1094L31.8333 11.125L30.5444 11.2656Z" fill="#763D16" stroke="#763D16" stroke-width="0.25" stroke-linecap="round" stroke-linejoin="round"/>
<path d="M0.111111 5.28125L1.45556 11.2656L0.155556 11.125L1.43333 12.1094L0.711111 12.6875L1.98889 13.8594L1.4 14.2891L2.68889 15.7969L8.86667 14.2109L12.8889 10.4883L1.96111 1.51172L0.111111 5.28125Z" fill="#763D16" stroke="#763D16" stroke-width="0.25" stroke-linecap="round" stroke-linejoin="round"/>
<path d="M29.3111 15.7969L23.1333 14.2109L25.1 17.2344L22.3222 23.2500L25.6778 23.2109H31.1333L29.3111 15.7969Z" fill="#F6851B" stroke="#F6851B" stroke-width="0.25" stroke-linecap="round" stroke-linejoin="round"/>
<path d="M8.86667 14.2109L2.68889 15.7969L0.877777 23.2109H6.32222L9.67779 23.2500L6.90002 17.2344L8.86667 14.2109Z" fill="#F6851B" stroke="#F6851B" stroke-width="0.25" stroke-linecap="round" stroke-linejoin="round"/>
<path d="M18.6 17.5469L19.1111 10.4883L20.2778 5.04883H11.7222L12.8889 10.4883L13.4 17.5469L13.5778 19.6406L13.5889 25.2812H18.4111L18.4222 19.6406L18.6 17.5469Z" fill="#F6851B" stroke="#F6851B" stroke-width="0.25" stroke-linecap="round" stroke-linejoin="round"/>
</svg>